<svg width="1440" height="874" viewBox="0 0 1440 874" fill="none" xmlns="http://www.w3.org/2000/svg">
<g opacity="0.3" clip-path="url(#clip0_3_9816)">
<path d="M-96.9434 800.103C-23.3294 800.103 36.3466 740.427 36.3466 666.813C36.3466 593.199 -23.3294 533.523 -96.9434 533.523C-170.557 533.523 -230.233 593.199 -230.233 666.813C-230.233 740.427 -170.557 800.103 -96.9434 800.103Z" fill="url(#paint0_radial_3_9816)"/>
<path d="M52.6963 95.9151C56.5618 95.9151 59.6954 92.7815 59.6954 88.916C59.6954 85.0506 56.5618 81.917 52.6963 81.917C48.8308 81.917 45.6973 85.0506 45.6973 88.916C45.6973 92.7815 48.8308 95.9151 52.6963 95.9151Z" fill="url(#paint1_radial_3_9816)"/>
<path d="M671.385 643.24C675.25 643.24 678.384 640.107 678.384 636.241C678.384 632.376 675.25 629.242 671.385 629.242C667.519 629.242 664.386 632.376 664.386 636.241C664.386 640.107 667.519 643.24 671.385 643.24Z" fill="url(#paint2_radial_3_9816)"/>
<path d="M1125.48 450.543C1125.48 441.948 1118.51 434.949 1109.89 434.949C1101.29 434.949 1094.3 441.92 1094.3 450.543C1094.3 459.138 1101.27 466.137 1109.89 466.137C1118.48 466.109 1125.48 459.138 1125.48 450.543Z" fill="url(#paint3_radial_3_9816)"/>
<path opacity="0.2" d="M409.06 341.386C409.06 332.792 402.089 325.792 393.466 325.792C384.871 325.792 377.872 332.764 377.872 341.386C377.872 349.981 384.843 356.98 393.466 356.98C402.089 356.952 409.06 349.981 409.06 341.386Z" fill="url(#paint4_radial_3_9816)"/>
<path opacity="0.2" d="M1229.57 780.002C1229.57 771.407 1222.6 764.436 1213.98 764.436C1205.38 764.436 1198.41 771.407 1198.41 780.002C1198.41 788.597 1205.38 795.596 1213.98 795.596C1222.6 795.568 1229.57 788.597 1229.57 780.002Z" fill="url(#paint5_radial_3_9816)"/>
<path d="M1363.12 163.61C1366.98 163.61 1370.11 160.476 1370.11 156.611C1370.11 152.745 1366.98 149.612 1363.12 149.612C1359.25 149.612 1356.12 152.745 1356.12 156.611C1356.12 160.476 1359.25 163.61 1363.12 163.61Z" fill="url(#paint6_radial_3_9816)"/>
<path d="M168.237 436.041C172.102 436.041 175.236 432.907 175.236 429.042C175.236 425.177 172.102 422.043 168.237 422.043C164.371 422.043 161.238 425.177 161.238 429.042C161.238 432.907 164.371 436.041 168.237 436.041Z" fill="url(#paint7_radial_3_9816)"/>
<path d="M959.774 547.242C959.774 543.379 956.638 540.243 952.775 540.243C948.911 540.243 945.776 543.379 945.776 547.242C945.776 551.106 948.911 554.241 952.775 554.241C956.666 554.241 959.774 551.106 959.774 547.242Z" fill="url(#paint8_radial_3_9816)"/>
<path d="M1266 537.164C1269.86 537.164 1273 534.03 1273 530.165C1273 526.299 1269.86 523.166 1266 523.166C1262.13 523.166 1259 526.299 1259 530.165C1259 534.03 1262.13 537.164 1266 537.164Z" fill="url(#paint9_radial_3_9816)"/>
<path d="M1215.46 606.09C1219.33 606.09 1222.46 602.957 1222.46 599.091C1222.46 595.226 1219.33 592.092 1215.46 592.092C1211.6 592.092 1208.46 595.226 1208.46 599.091C1208.46 602.957 1211.6 606.09 1215.46 606.09Z" fill="url(#paint10_radial_3_9816)"/>
<path d="M1431.68 744.531C1431.68 735.936 1424.71 728.965 1416.08 728.965C1407.49 728.965 1400.52 735.936 1400.52 744.531C1400.52 753.126 1407.49 760.125 1416.08 760.125C1424.71 760.125 1431.68 753.154 1431.68 744.531Z" fill="url(#paint11_radial_3_9816)"/>
<path d="M1381.54 877.289C1385.4 877.289 1388.54 874.155 1388.54 870.29C1388.54 866.424 1385.4 863.291 1381.54 863.291C1377.67 863.291 1374.54 866.424 1374.54 870.29C1374.54 874.155 1377.67 877.289 1381.54 877.289Z" fill="url(#paint12_radial_3_9816)"/>
<path d="M1259 848.258C1262.86 848.258 1266 845.124 1266 841.259C1266 837.393 1262.86 834.26 1259 834.26C1255.13 834.26 1252 837.393 1252 841.259C1252 845.124 1255.13 848.258 1259 848.258Z" fill="url(#paint13_radial_3_9816)"/>
<path d="M404.049 434.865C407.914 434.865 411.048 431.732 411.048 427.866C411.048 424.001 407.914 420.867 404.049 420.867C400.183 420.867 397.05 424.001 397.05 427.866C397.05 431.732 400.183 434.865 404.049 434.865Z" fill="url(#paint14_radial_3_9816)"/>
<path d="M353.516 503.792C357.381 503.792 360.515 500.658 360.515 496.793C360.515 492.927 357.381 489.793 353.516 489.793C349.65 489.793 346.517 492.927 346.517 496.793C346.517 500.658 349.65 503.792 353.516 503.792Z" fill="url(#paint15_radial_3_9816)"/>
<path opacity="0.2" d="M540.502 15.5939C540.502 6.99905 533.531 0 524.908 0C516.314 0 509.315 6.97106 509.315 15.5939C509.315 24.1887 516.286 31.1878 524.908 31.1878C533.531 31.1598 540.502 24.1887 540.502 15.5939Z" fill="url(#paint16_radial_3_9816)"/>
<path d="M891.575 38.1588C895.44 38.1588 898.574 35.0252 898.574 31.1597C898.574 27.2942 895.44 24.1606 891.575 24.1606C887.709 24.1606 884.576 27.2942 884.576 31.1597C884.576 35.0252 887.709 38.1588 891.575 38.1588Z" fill="url(#paint17_radial_3_9816)"/>
<path d="M755.681 97.7344C759.547 97.7344 762.68 94.6009 762.68 90.7354C762.68 86.8699 759.547 83.7363 755.681 83.7363C751.816 83.7363 748.682 86.8699 748.682 90.7354C748.682 94.6009 751.816 97.7344 755.681 97.7344Z" fill="url(#paint18_radial_3_9816)"/>
<path d="M535.491 109.073C539.356 109.073 542.49 105.94 542.49 102.074C542.49 98.2088 539.356 95.0752 535.491 95.0752C531.626 95.0752 528.492 98.2088 528.492 102.074C528.492 105.94 531.626 109.073 535.491 109.073Z" fill="url(#paint19_radial_3_9816)"/>
<path d="M518.777 662.503C522.643 662.503 525.776 659.369 525.776 655.503C525.776 651.638 522.643 648.504 518.777 648.504C514.912 648.504 511.778 651.638 511.778 655.503C511.778 659.369 514.912 662.503 518.777 662.503Z" fill="url(#paint20_radial_3_9816)"/>
<path opacity="0.2" d="M175.852 680.308C175.852 671.713 168.881 664.714 160.258 664.714C151.663 664.714 144.664 671.685 144.664 680.308C144.664 688.903 151.635 695.874 160.258 695.874C168.881 695.902 175.852 688.931 175.852 680.308Z" fill="url(#paint21_radial_3_9816)"/>
<path opacity="0.2" d="M310.737 833.728C310.737 825.133 303.766 818.162 295.144 818.162C286.521 818.162 279.55 825.133 279.55 833.728C279.55 842.323 286.521 849.322 295.144 849.322C303.766 849.322 310.737 842.351 310.737 833.728Z" fill="url(#paint22_radial_3_9816)"/>
<path d="M397.05 745.96C400.915 745.96 404.049 742.826 404.049 738.96C404.049 735.095 400.915 731.961 397.05 731.961C393.184 731.961 390.051 735.095 390.051 738.96C390.051 742.826 393.184 745.96 397.05 745.96Z" fill="url(#paint23_radial_3_9816)"/>
<path d="M6.39057 893.275C23.5996 893.275 37.5504 879.324 37.5504 862.115C37.5504 844.906 23.5996 830.956 6.39057 830.956C-10.8185 830.956 -24.7692 844.906 -24.7692 862.115C-24.7692 879.324 -10.8185 893.275 6.39057 893.275Z" fill="url(#paint24_radial_3_9816)"/>
<path d="M371.517 786.106C375.383 786.106 378.516 782.972 378.516 779.106C378.516 775.241 375.383 772.107 371.517 772.107C367.652 772.107 364.518 775.241 364.518 779.106C364.518 782.972 367.652 786.106 371.517 786.106Z" fill="url(#paint25_radial_3_9816)"/>
<path opacity="0.2" d="M1296.57 781.067C1296.57 789.662 1303.54 796.633 1312.13 796.633C1320.73 796.633 1327.7 789.662 1327.7 781.067C1327.7 772.472 1320.73 765.501 1312.13 765.501C1303.54 765.473 1296.57 772.444 1296.57 781.067Z" fill="url(#paint26_radial_3_9816)"/>
<path d="M167.285 524.09C171.15 524.09 174.284 520.956 174.284 517.091C174.284 513.225 171.15 510.092 167.285 510.092C163.419 510.092 160.286 513.225 160.286 517.091C160.286 520.956 163.419 524.09 167.285 524.09Z" fill="url(#paint27_radial_3_9816)"/>
</g>
<defs>
<radialGradient id="paint0_radial_3_9816" cx="0" cy="0" r="1" gradientUnits="userSpaceOnUse" gradientTransform="translate(-96.9431 666.812) scale(133.277)">
<stop offset="0.5642" stop-color="#DE0000"/>
<stop offset="0.6313" stop-color="#DA0000"/>
<stop offset="0.6907" stop-color="#D00000"/>
<stop offset="0.7473" stop-color="#BE0000"/>
<stop offset="0.8021" stop-color="#A40000"/>
<stop offset="0.8556" stop-color="#830000"/>
<stop offset="0.9082" stop-color="#5B0000"/>
<stop offset="0.959" stop-color="#2C0000"/>
<stop offset="1"/>
</radialGradient>
<radialGradient id="paint1_radial_3_9816" cx="0" cy="0" r="1" gradientUnits="userSpaceOnUse" gradientTransform="translate(52.7072 88.9113) scale(6.99904 6.99905)">
<stop offset="0.5642" stop-color="#F50000"/>
<stop offset="0.6284" stop-color="#F10000"/>
<stop offset="0.6852" stop-color="#E70000"/>
<stop offset="0.7393" stop-color="#D50000"/>
<stop offset="0.7917" stop-color="#BB0000"/>
<stop offset="0.8429" stop-color="#9A0000"/>
<stop offset="0.8933" stop-color="#720000"/>
<stop offset="0.9428" stop-color="#420000"/>
<stop offset="0.9906" stop-color="#0C0000"/>
<stop offset="1"/>
</radialGradient>
<radialGradient id="paint2_radial_3_9816" cx="0" cy="0" r="1" gradientUnits="userSpaceOnUse" gradientTransform="translate(671.389 636.245) scale(6.99905)">
<stop offset="0.5642" stop-color="#F50000"/>
<stop offset="0.6284" stop-color="#F10000"/>
<stop offset="0.6852" stop-color="#E70000"/>
<stop offset="0.7393" stop-color="#D50000"/>
<stop offset="0.7917" stop-color="#BB0000"/>
<stop offset="0.8429" stop-color="#9A0000"/>
<stop offset="0.8933" stop-color="#720000"/>
<stop offset="0.9428" stop-color="#420000"/>
<stop offset="0.9906" stop-color="#0C0000"/>
<stop offset="1"/>
</radialGradient>
<radialGradient id="paint3_radial_3_9816" cx="0" cy="0" r="1" gradientUnits="userSpaceOnUse" gradientTransform="translate(1109.89 450.535) scale(15.581 15.581)">
<stop offset="0.5642" stop-color="#6E008B"/>
<stop offset="0.6471" stop-color="#6B0087"/>
<stop offset="0.7204" stop-color="#63007D"/>
<stop offset="0.7902" stop-color="#54006B"/>
<stop offset="0.8578" stop-color="#400051"/>
<stop offset="0.9239" stop-color="#260030"/>
<stop offset="0.9879" stop-color="#070008"/>
<stop offset="1"/>
</radialGradient>
<radialGradient id="paint4_radial_3_9816" cx="0" cy="0" r="1" gradientUnits="userSpaceOnUse" gradientTransform="translate(393.489 341.374) scale(15.581)">
<stop offset="0.5642" stop-color="#EA8100"/>
<stop offset="0.6297" stop-color="#E67F00"/>
<stop offset="0.6877" stop-color="#DC7900"/>
<stop offset="0.743" stop-color="#CA6F00"/>
<stop offset="0.7965" stop-color="#B06100"/>
<stop offset="0.8487" stop-color="#8F4F00"/>
<stop offset="0.9001" stop-color="#673900"/>
<stop offset="0.95" stop-color="#371F00"/>
<stop offset="0.9989" stop-color="#010100"/>
<stop offset="1"/>
</radialGradient>
<radialGradient id="paint5_radial_3_9816" cx="0" cy="0" r="1" gradientUnits="userSpaceOnUse" gradientTransform="translate(1214 779.991) scale(15.581)">
<stop offset="0.5642" stop-color="#EA8100"/>
<stop offset="0.6297" stop-color="#E67F00"/>
<stop offset="0.6877" stop-color="#DC7900"/>
<stop offset="0.743" stop-color="#CA6F00"/>
<stop offset="0.7965" stop-color="#B06100"/>
<stop offset="0.8487" stop-color="#8F4F00"/>
<stop offset="0.9001" stop-color="#673900"/>
<stop offset="0.95" stop-color="#371F00"/>
<stop offset="0.9989" stop-color="#010100"/>
<stop offset="1"/>
</radialGradient>
<radialGradient id="paint6_radial_3_9816" cx="0" cy="0" r="1" gradientUnits="userSpaceOnUse" gradientTransform="translate(1363.11 156.616) scale(6.99905)">
<stop offset="0.5642" stop-color="#7000B2"/>
<stop offset="0.6383" stop-color="#6E00AE"/>
<stop offset="0.704" stop-color="#6700A4"/>
<stop offset="0.7664" stop-color="#5C0092"/>
<stop offset="0.8269" stop-color="#4C0078"/>
<stop offset="0.886" stop-color="#370057"/>
<stop offset="0.9432" stop-color="#1E002F"/>
<stop offset="0.9994" stop-color="#000001"/>
<stop offset="1"/>
</radialGradient>
<radialGradient id="paint7_radial_3_9816" cx="0" cy="0" r="1" gradientUnits="userSpaceOnUse" gradientTransform="translate(168.25 429.031) scale(6.99905)">
<stop offset="0.5642" stop-color="#7000B2"/>
<stop offset="0.6383" stop-color="#6E00AE"/>
<stop offset="0.704" stop-color="#6700A4"/>
<stop offset="0.7664" stop-color="#5C0092"/>
<stop offset="0.8269" stop-color="#4C0078"/>
<stop offset="0.886" stop-color="#370057"/>
<stop offset="0.9432" stop-color="#1E002F"/>
<stop offset="0.9994" stop-color="#000001"/>
<stop offset="1"/>
</radialGradient>
<radialGradient id="paint8_radial_3_9816" cx="0" cy="0" r="1" gradientUnits="userSpaceOnUse" gradientTransform="translate(952.788 547.254) scale(6.99933)">
<stop offset="0.5642" stop-color="#7000B2"/>
<stop offset="0.6383" stop-color="#6E00AE"/>
<stop offset="0.704" stop-color="#6700A4"/>
<stop offset="0.7664" stop-color="#5C0092"/>
<stop offset="0.8269" stop-color="#4C0078"/>
<stop offset="0.886" stop-color="#370057"/>
<stop offset="0.9432" stop-color="#1E002F"/>
<stop offset="0.9994" stop-color="#000001"/>
<stop offset="1"/>
</radialGradient>
<radialGradient id="paint9_radial_3_9816" cx="0" cy="0" r="1" gradientUnits="userSpaceOnUse" gradientTransform="translate(1266 530.157) scale(6.99905)">
<stop offset="0.5642" stop-color="#F50000"/>
<stop offset="0.6284" stop-color="#F10000"/>
<stop offset="0.6852" stop-color="#E70000"/>
<stop offset="0.7393" stop-color="#D50000"/>
<stop offset="0.7917" stop-color="#BB0000"/>
<stop offset="0.8429" stop-color="#9A0000"/>
<stop offset="0.8933" stop-color="#720000"/>
<stop offset="0.9428" stop-color="#420000"/>
<stop offset="0.9906" stop-color="#0C0000"/>
<stop offset="1"/>
</radialGradient>
<radialGradient id="paint10_radial_3_9816" cx="0" cy="0" r="1" gradientUnits="userSpaceOnUse" gradientTransform="translate(1215.46 599.091) scale(6.99905)">
<stop offset="0.5642" stop-color="#F50000"/>
<stop offset="0.6284" stop-color="#F10000"/>
<stop offset="0.6852" stop-color="#E70000"/>
<stop offset="0.7393" stop-color="#D50000"/>
<stop offset="0.7917" stop-color="#BB0000"/>
<stop offset="0.8429" stop-color="#9A0000"/>
<stop offset="0.8933" stop-color="#720000"/>
<stop offset="0.9428" stop-color="#420000"/>
<stop offset="0.9906" stop-color="#0C0000"/>
<stop offset="1"/>
</radialGradient>
<radialGradient id="paint11_radial_3_9816" cx="0" cy="0" r="1" gradientUnits="userSpaceOnUse" gradientTransform="translate(1416.1 744.541) scale(15.581)">
<stop offset="0.5642" stop-color="#6E008B"/>
<stop offset="0.6471" stop-color="#6B0087"/>
<stop offset="0.7204" stop-color="#63007D"/>
<stop offset="0.7902" stop-color="#54006B"/>
<stop offset="0.8578" stop-color="#400051"/>
<stop offset="0.9239" stop-color="#260030"/>
<stop offset="0.9879" stop-color="#070008"/>
<stop offset="1"/>
</radialGradient>
<radialGradient id="paint12_radial_3_9816" cx="0" cy="0" r="1" gradientUnits="userSpaceOnUse" gradientTransform="translate(1381.54 870.276) scale(6.99905)">
<stop offset="0.5642" stop-color="#7000B2"/>
<stop offset="0.6383" stop-color="#6E00AE"/>
<stop offset="0.704" stop-color="#6700A4"/>
<stop offset="0.7664" stop-color="#5C0092"/>
<stop offset="0.8269" stop-color="#4C0078"/>
<stop offset="0.886" stop-color="#370057"/>
<stop offset="0.9432" stop-color="#1E002F"/>
<stop offset="0.9994" stop-color="#000001"/>
<stop offset="1"/>
</radialGradient>
<radialGradient id="paint13_radial_3_9816" cx="0" cy="0" r="1" gradientUnits="userSpaceOnUse" gradientTransform="translate(1259 841.264) scale(6.99905)">
<stop offset="0.5642" stop-color="#7000B2"/>
<stop offset="0.6383" stop-color="#6E00AE"/>
<stop offset="0.704" stop-color="#6700A4"/>
<stop offset="0.7664" stop-color="#5C0092"/>
<stop offset="0.8269" stop-color="#4C0078"/>
<stop offset="0.886" stop-color="#370057"/>
<stop offset="0.9432" stop-color="#1E002F"/>
<stop offset="0.9994" stop-color="#000001"/>
<stop offset="1"/>
</radialGradient>
<radialGradient id="paint14_radial_3_9816" cx="0" cy="0" r="1" gradientUnits="userSpaceOnUse" gradientTransform="translate(404.05 427.853) scale(6.99905)">
<stop offset="0.5642" stop-color="#F50000"/>
<stop offset="0.6284" stop-color="#F10000"/>
<stop offset="0.6852" stop-color="#E70000"/>
<stop offset="0.7393" stop-color="#D50000"/>
<stop offset="0.7917" stop-color="#BB0000"/>
<stop offset="0.8429" stop-color="#9A0000"/>
<stop offset="0.8933" stop-color="#720000"/>
<stop offset="0.9428" stop-color="#420000"/>
<stop offset="0.9906" stop-color="#0C0000"/>
<stop offset="1"/>
</radialGradient>
<radialGradient id="paint15_radial_3_9816" cx="0" cy="0" r="1" gradientUnits="userSpaceOnUse" gradientTransform="translate(353.515 496.788) scale(6.99905)">
<stop offset="0.5642" stop-color="#F50000"/>
<stop offset="0.6284" stop-color="#F10000"/>
<stop offset="0.6852" stop-color="#E70000"/>
<stop offset="0.7393" stop-color="#D50000"/>
<stop offset="0.7917" stop-color="#BB0000"/>
<stop offset="0.8429" stop-color="#9A0000"/>
<stop offset="0.8933" stop-color="#720000"/>
<stop offset="0.9428" stop-color="#420000"/>
<stop offset="0.9906" stop-color="#0C0000"/>
<stop offset="1"/>
</radialGradient>
<radialGradient id="paint16_radial_3_9816" cx="0" cy="0" r="1" gradientUnits="userSpaceOnUse" gradientTransform="translate(524.919 15.5813) scale(15.5813 15.5813)">
<stop offset="0.5642" stop-color="#EA8100"/>
<stop offset="0.6297" stop-color="#E67F00"/>
<stop offset="0.6877" stop-color="#DC7900"/>
<stop offset="0.743" stop-color="#CA6F00"/>
<stop offset="0.7965" stop-color="#B06100"/>
<stop offset="0.8487" stop-color="#8F4F00"/>
<stop offset="0.9001" stop-color="#673900"/>
<stop offset="0.95" stop-color="#371F00"/>
<stop offset="0.9989" stop-color="#010100"/>
<stop offset="1"/>
</radialGradient>
<radialGradient id="paint17_radial_3_9816" cx="0" cy="0" r="1" gradientUnits="userSpaceOnUse" gradientTransform="translate(891.568 31.1622) scale(6.99905)">
<stop offset="0.5642" stop-color="#7000B2"/>
<stop offset="0.6383" stop-color="#6E00AE"/>
<stop offset="0.704" stop-color="#6700A4"/>
<stop offset="0.7664" stop-color="#5C0092"/>
<stop offset="0.8269" stop-color="#4C0078"/>
<stop offset="0.886" stop-color="#370057"/>
<stop offset="0.9432" stop-color="#1E002F"/>
<stop offset="0.9994" stop-color="#000001"/>
<stop offset="1"/>
</radialGradient>
<radialGradient id="paint18_radial_3_9816" cx="0" cy="0" r="1" gradientUnits="userSpaceOnUse" gradientTransform="translate(755.678 90.7469) scale(6.99905)">
<stop offset="0.5642" stop-color="#7000B2"/>
<stop offset="0.6383" stop-color="#6E00AE"/>
<stop offset="0.704" stop-color="#6700A4"/>
<stop offset="0.7664" stop-color="#5C0092"/>
<stop offset="0.8269" stop-color="#4C0078"/>
<stop offset="0.886" stop-color="#370057"/>
<stop offset="0.9432" stop-color="#1E002F"/>
<stop offset="0.9994" stop-color="#000001"/>
<stop offset="1"/>
</radialGradient>
<radialGradient id="paint19_radial_3_9816" cx="0" cy="0" r="1" gradientUnits="userSpaceOnUse" gradientTransform="translate(535.481 102.062) scale(6.99905)">
<stop offset="0.5642" stop-color="#F50000"/>
<stop offset="0.6284" stop-color="#F10000"/>
<stop offset="0.6852" stop-color="#E70000"/>
<stop offset="0.7393" stop-color="#D50000"/>
<stop offset="0.7917" stop-color="#BB0000"/>
<stop offset="0.8429" stop-color="#9A0000"/>
<stop offset="0.8933" stop-color="#720000"/>
<stop offset="0.9428" stop-color="#420000"/>
<stop offset="0.9906" stop-color="#0C0000"/>
<stop offset="1"/>
</radialGradient>
<radialGradient id="paint20_radial_3_9816" cx="0" cy="0" r="1" gradientUnits="userSpaceOnUse" gradientTransform="translate(518.766 655.515) scale(6.99905)">
<stop offset="0.5642" stop-color="#F50000"/>
<stop offset="0.6284" stop-color="#F10000"/>
<stop offset="0.6852" stop-color="#E70000"/>
<stop offset="0.7393" stop-color="#D50000"/>
<stop offset="0.7917" stop-color="#BB0000"/>
<stop offset="0.8429" stop-color="#9A0000"/>
<stop offset="0.8933" stop-color="#720000"/>
<stop offset="0.9428" stop-color="#420000"/>
<stop offset="0.9906" stop-color="#0C0000"/>
<stop offset="1"/>
</radialGradient>
<radialGradient id="paint21_radial_3_9816" cx="0" cy="0" r="1" gradientUnits="userSpaceOnUse" gradientTransform="translate(160.279 680.315) scale(15.581 15.581)">
<stop offset="0.5642" stop-color="#EA8100"/>
<stop offset="0.6297" stop-color="#E67F00"/>
<stop offset="0.6877" stop-color="#DC7900"/>
<stop offset="0.743" stop-color="#CA6F00"/>
<stop offset="0.7965" stop-color="#B06100"/>
<stop offset="0.8487" stop-color="#8F4F00"/>
<stop offset="0.9001" stop-color="#673900"/>
<stop offset="0.95" stop-color="#371F00"/>
<stop offset="0.9989" stop-color="#010100"/>
<stop offset="1"/>
</radialGradient>
<radialGradient id="paint22_radial_3_9816" cx="0" cy="0" r="1" gradientUnits="userSpaceOnUse" gradientTransform="translate(295.145 833.737) scale(15.581 15.581)">
<stop offset="0.5642" stop-color="#EA8100"/>
<stop offset="0.6297" stop-color="#E67F00"/>
<stop offset="0.6877" stop-color="#DC7900"/>
<stop offset="0.743" stop-color="#CA6F00"/>
<stop offset="0.7965" stop-color="#B06100"/>
<stop offset="0.8487" stop-color="#8F4F00"/>
<stop offset="0.9001" stop-color="#673900"/>
<stop offset="0.95" stop-color="#371F00"/>
<stop offset="0.9989" stop-color="#010100"/>
<stop offset="1"/>
</radialGradient>
<radialGradient id="paint23_radial_3_9816" cx="0" cy="0" r="1" gradientUnits="userSpaceOnUse" gradientTransform="translate(397.051 738.957) scale(6.99905)">
<stop offset="0.5642" stop-color="#7000B2"/>
<stop offset="0.6383" stop-color="#6E00AE"/>
<stop offset="0.704" stop-color="#6700A4"/>
<stop offset="0.7664" stop-color="#5C0092"/>
<stop offset="0.8269" stop-color="#4C0078"/>
<stop offset="0.886" stop-color="#370057"/>
<stop offset="0.9432" stop-color="#1E002F"/>
<stop offset="0.9994" stop-color="#000001"/>
<stop offset="1"/>
</radialGradient>
<radialGradient id="paint24_radial_3_9816" cx="0" cy="0" r="1" gradientUnits="userSpaceOnUse" gradientTransform="translate(6.37824 862.118) scale(31.1623 31.1623)">
<stop offset="0.5642" stop-color="#B82B00"/>
<stop offset="0.6372" stop-color="#B42A00"/>
<stop offset="0.7019" stop-color="#AA2800"/>
<stop offset="0.7634" stop-color="#982300"/>
<stop offset="0.823" stop-color="#7E1D00"/>
<stop offset="0.8812" stop-color="#5D1600"/>
<stop offset="0.9384" stop-color="#350C00"/>
<stop offset="0.9938" stop-color="#060100"/>
<stop offset="1"/>
</radialGradient>
<radialGradient id="paint25_radial_3_9816" cx="0" cy="0" r="1" gradientUnits="userSpaceOnUse" gradientTransform="translate(371.514 779.103) scale(6.99905)">
<stop offset="0.5642" stop-color="#7000B2"/>
<stop offset="0.6383" stop-color="#6E00AE"/>
<stop offset="0.704" stop-color="#6700A4"/>
<stop offset="0.7664" stop-color="#5C0092"/>
<stop offset="0.8269" stop-color="#4C0078"/>
<stop offset="0.886" stop-color="#370057"/>
<stop offset="0.9432" stop-color="#1E002F"/>
<stop offset="0.9994" stop-color="#000001"/>
<stop offset="1"/>
</radialGradient>
<radialGradient id="paint26_radial_3_9816" cx="0" cy="0" r="1" gradientUnits="userSpaceOnUse" gradientTransform="translate(1312.15 781.055) rotate(180) scale(15.5782)">
<stop offset="0.5642" stop-color="#EA8100"/>
<stop offset="0.6297" stop-color="#E67F00"/>
<stop offset="0.6877" stop-color="#DC7900"/>
<stop offset="0.743" stop-color="#CA6F00"/>
<stop offset="0.7965" stop-color="#B06100"/>
<stop offset="0.8487" stop-color="#8F4F00"/>
<stop offset="0.9001" stop-color="#673900"/>
<stop offset="0.95" stop-color="#371F00"/>
<stop offset="0.9989" stop-color="#010100"/>
<stop offset="1"/>
</radialGradient>
<radialGradient id="paint27_radial_3_9816" cx="0" cy="0" r="1" gradientUnits="userSpaceOnUse" gradientTransform="translate(167.279 517.078) scale(6.99905)">
<stop offset="0.5642" stop-color="#7000B2"/>
<stop offset="0.6383" stop-color="#6E00AE"/>
<stop offset="0.704" stop-color="#6700A4"/>
<stop offset="0.7664" stop-color="#5C0092"/>
<stop offset="0.8269" stop-color="#4C0078"/>
<stop offset="0.886" stop-color="#370057"/>
<stop offset="0.9432" stop-color="#1E002F"/>
<stop offset="0.9994" stop-color="#000001"/>
<stop offset="1"/>
</radialGradient>
<clipPath id="clip0_3_9816">
<rect width="2040.98" height="1111.9" fill="white" transform="translate(-300)"/>
</clipPath>
</defs>
</svg>
